<?xml version="1.0" standalone="no"?>
<!DOCTYPE svg PUBLIC "-//W3C//DTD SVG 20010904//EN"
 "http://www.w3.org/TR/2001/REC-SVG-20010904/DTD/svg10.dtd">
<svg version="1.0" xmlns="http://www.w3.org/2000/svg"
 width="830.000000pt" height="830.000000pt" viewBox="0 0 830.000000 830.000000"
 preserveAspectRatio="xMidYMid meet">

<g transform="translate(0.000000,830.000000) scale(0.100000,-0.100000)"
fill="#000000" stroke="none">
<path d="M2895 7334 c-691 -45 -1357 -277 -1915 -667 -320 -223 -622 -524
-860 -857 -87 -122 -127 -187 -119 -195 3 -2 36 7 74 21 378 137 777 87 1072
-135 401 -302 613 -871 479 -1283 -13 -40 -27 -80 -30 -89 -6 -14 6 -17 81
-22 340 -24 631 -261 741 -607 38 -118 47 -182 46 -325 -1 -116 -6 -157 -27
-236 -43 -163 -131 -314 -244 -420 l-49 -46 100 -7 c291 -20 460 -74 582 -188
153 -144 180 -334 99 -717 -20 -95 -35 -185 -33 -199 3 -25 4 -25 29 14 126
191 355 362 556 415 103 28 264 30 348 5 184 -54 340 -207 402 -392 8 -27 19
-53 23 -57 4 -5 17 22 28 60 27 86 97 231 156 320 179 273 448 465 741 531
106 23 309 21 406 -6 125 -34 294 -128 364 -202 53 -57 58 -56 121 10 127 133
346 236 586 275 118 19 347 19 463 0 336 -55 612 -224 787 -483 51 -76 121
-214 133 -265 4 -15 11 -27 15 -27 21 0 140 367 188 580 62 276 64 302 59 816
l-3 469 -37 170 c-70 329 -156 582 -296 870 -128 264 -270 491 -435 695 -102
126 -296 318 -401 397 -93 70 -173 119 -180 111 -2 -2 -17 -71 -34 -153 -122
-605 -363 -1013 -695 -1179 -224 -112 -452 -124 -739 -41 -77 22 -261 95 -274
109 -3 3 17 26 45 51 162 146 273 425 327 821 9 66 15 139 13 162 l-3 42 -125
-88 c-189 -132 -228 -156 -243 -145 -6 6 -41 34 -77 62 -129 103 -288 181
-440 216 -41 9 -80 18 -85 20 -6 1 -21 94 -33 206 -13 112 -26 219 -30 238
l-7 34 -114 -119 c-287 -301 -454 -597 -464 -821 -1 -29 -4 -53 -7 -53 -13 0
-162 87 -218 127 -232 165 -370 351 -423 568 -27 109 -30 291 -6 400 66 298
267 638 567 958 45 48 81 90 78 92 -7 7 -120 56 -163 70 -165 55 -377 85 -635
89 -113 2 -232 2 -265 0z"/>
</g>
</svg>
