<?xml version="1.0" standalone="no"?>
<!DOCTYPE svg PUBLIC "-//W3C//DTD SVG 20010904//EN"
 "http://www.w3.org/TR/2001/REC-SVG-20010904/DTD/svg10.dtd">
<svg version="1.0" xmlns="http://www.w3.org/2000/svg"
 width="277.000000pt" height="182.000000pt" viewBox="0 0 277.000000 182.000000"
 preserveAspectRatio="xMidYMid meet">

<g transform="translate(0.000000,182.000000) scale(0.100000,-0.100000)"
fill="#000000" stroke="none">
<path d="M1560 1749 c-14 -6 -46 -9 -73 -7 -26 2 -47 0 -47 -4 0 -14 55 -49
72 -45 27 7 51 -28 59 -89 5 -36 15 -65 29 -79 15 -16 20 -33 18 -55 -3 -31
-7 -34 -77 -59 -82 -29 -104 -51 -50 -51 59 0 16 -22 -53 -27 -56 -4 -67 -2
-101 21 -34 23 -37 24 -27 5 7 -11 26 -27 43 -34 24 -11 27 -14 12 -15 -11 0
-38 12 -59 26 -21 14 -57 29 -80 31 -49 7 -40 -8 17 -27 20 -6 43 -17 50 -23
6 -7 23 -18 37 -24 22 -10 16 -12 -43 -11 -103 0 -90 -8 24 -17 66 -4 97 -10
88 -16 -10 -6 -10 -9 -1 -9 24 0 11 -21 -23 -36 -44 -18 -99 -18 -161 1 -56
17 -102 19 -124 5 -11 -7 -5 -10 25 -10 22 0 48 -7 58 -14 10 -8 47 -20 83
-27 35 -7 64 -16 64 -20 0 -17 -66 -28 -134 -22 -40 3 -99 2 -131 -2 l-59 -7
67 -29 c40 -18 93 -32 133 -36 56 -5 67 -9 77 -30 15 -33 -18 -64 -102 -99
-36 -15 -83 -41 -104 -57 -35 -26 -44 -29 -90 -24 l-52 6 34 -15 c36 -16 43
-16 151 11 92 24 129 29 109 16 -9 -6 -22 -24 -29 -40 -16 -39 -2 -63 55 -97
48 -28 59 -48 23 -39 -147 34 -167 36 -233 30 -48 -5 -88 -17 -125 -36 -58
-31 -111 -36 -182 -20 -21 5 -38 7 -38 5 0 -1 21 -12 46 -23 37 -17 61 -20
127 -16 45 2 98 9 117 14 51 16 50 14 -5 -18 -39 -22 -58 -27 -95 -24 l-45 3
40 -19 c22 -11 53 -31 69 -44 34 -29 39 -25 -93 -77 -91 -36 -93 -37 -134 -26
-21 5 -31 1 -48 -18 l-21 -24 -34 20 c-39 23 -61 22 -201 -11 -102 -23 -287
-111 -304 -143 -9 -17 -8 -18 10 -9 11 6 22 11 25 11 12 0 6 -28 -6 -33 -7 -3
-3 -6 10 -6 12 -1 22 -4 22 -7 0 -3 -10 -15 -22 -25 -23 -20 -23 -20 -1 -10
33 16 37 13 19 -14 -14 -21 -14 -25 -2 -25 27 0 28 -20 1 -32 -18 -8 -22 -14
-13 -20 23 -14 102 -8 158 13 30 11 84 25 119 30 49 8 73 18 99 41 19 16 54
38 78 48 48 21 67 48 62 88 -3 24 0 27 26 25 33 -3 54 11 66 42 6 16 39 33
118 64 l110 42 26 -22 c33 -28 33 -42 0 -72 l-26 -24 44 -7 c36 -5 55 -2 99
19 30 13 59 25 66 25 6 0 32 16 58 36 61 46 95 43 43 -4 -30 -28 -37 -42 -43
-90 -4 -31 -12 -63 -17 -70 -8 -9 -7 -11 4 -7 20 8 56 57 63 88 7 28 42 47 85
47 32 0 40 -14 15 -24 -9 -3 -15 -19 -15 -41 0 -32 2 -35 24 -29 19 4 27 -1
44 -29 27 -42 63 -60 97 -47 31 12 33 37 3 36 -17 -1 -29 12 -51 52 -25 46
-27 57 -17 81 6 15 26 35 45 44 18 9 36 25 40 36 4 12 15 21 27 21 17 0 19 -4
13 -23 -12 -34 -10 -96 3 -109 9 -9 18 -8 37 2 22 12 30 12 54 -3 37 -22 97
-22 105 -1 9 24 8 25 -17 19 -16 -4 -29 1 -47 21 -14 14 -34 30 -46 34 -26 10
-39 83 -21 116 44 80 77 125 120 164 33 30 51 56 56 79 6 32 13 37 76 63 38
16 77 26 87 22 11 -3 31 2 46 12 15 10 47 21 72 24 33 4 47 11 54 26 8 18 20
23 68 26 38 3 65 10 76 22 16 16 16 17 -11 7 -16 -6 -38 -11 -50 -11 -12 1 59
34 158 74 219 88 251 104 237 118 -7 7 -53 -6 -151 -46 -77 -30 -147 -53 -155
-50 -18 7 -29 44 -33 114 -6 110 -8 123 -23 128 -8 3 -23 11 -32 19 -15 13
-18 12 -32 -16 -9 -16 -16 -43 -16 -58 0 -19 -10 -37 -30 -55 -24 -21 -30 -34
-30 -67 0 -22 7 -59 16 -81 25 -61 17 -69 -61 -64 -73 4 -135 26 -135 47 0 30
-62 97 -128 140 -78 50 -90 64 -72 80 9 9 15 7 27 -10 19 -28 49 -32 38 -5
-13 29 -18 82 -7 82 5 0 15 -7 22 -15 8 -9 17 -12 22 -7 11 11 -4 53 -26 71
-23 19 -21 51 4 51 12 0 43 11 70 25 47 24 50 28 50 63 0 20 -5 44 -10 52 -8
12 -10 11 -10 -7 0 -13 -6 -23 -13 -23 -7 0 -20 -9 -30 -20 -12 -15 -29 -20
-65 -20 -42 0 -52 4 -85 38 -20 21 -37 47 -37 59 0 26 -27 60 -60 76 -14 7
-26 23 -28 37 -7 49 -37 61 -92 39z m-366 -658 c38 -15 0 -19 -49 -6 l-50 14
40 0 c22 0 49 -4 59 -8z m756 -147 c22 -15 38 -29 35 -32 -3 -3 -36 -17 -74
-32 l-68 -27 -27 24 c-20 17 -39 23 -76 23 -27 0 -52 5 -56 11 -9 14 14 35 49
43 23 5 27 3 27 -14 0 -27 23 -26 85 4 28 14 53 25 58 25 4 1 25 -11 47 -25z
m-720 -443 c0 -29 -85 -81 -134 -81 -19 0 41 53 79 71 46 20 55 22 55 10z"/>
<path d="M1279 1228 c31 -5 66 -5 80 0 19 6 4 9 -54 9 l-80 0 54 -9z"/>
</g>
</svg>
