<?xml version="1.0" standalone="no"?>
<!DOCTYPE svg PUBLIC "-//W3C//DTD SVG 20010904//EN"
 "http://www.w3.org/TR/2001/REC-SVG-20010904/DTD/svg10.dtd">
<svg version="1.0" xmlns="http://www.w3.org/2000/svg"
 width="275.000000pt" height="183.000000pt" viewBox="0 0 275.000000 183.000000"
 preserveAspectRatio="xMidYMid meet">

<g transform="translate(0.000000,183.000000) scale(0.100000,-0.100000)"
fill="#000000" stroke="none">
<path d="M1111 1666 c-36 -38 -73 -89 -88 -122 -26 -57 -26 -60 -15 -153 15
-130 25 -154 116 -282 46 -65 75 -114 69 -120 -11 -11 -83 11 -154 46 -71 36
-173 139 -204 207 -28 59 -32 134 -14 232 15 85 6 89 -20 9 -14 -43 -23 -98
-24 -141 -1 -63 2 -75 34 -126 76 -127 107 -156 243 -230 146 -78 146 -63 -8
-146 -123 -66 -150 -90 -217 -192 l-54 -82 0 -80 c0 -60 6 -98 24 -148 14 -37
26 -66 28 -64 2 2 -4 48 -12 102 -24 149 -7 209 94 317 70 74 118 106 209 136
67 23 82 25 82 13 0 -4 -36 -59 -80 -121 -90 -128 -107 -173 -117 -303 -5 -80
-4 -91 21 -141 28 -58 95 -140 127 -158 12 -6 -4 25 -40 76 -75 109 -90 163
-72 266 18 98 71 199 142 270 33 33 64 59 70 59 7 0 -9 -18 -34 -40 -25 -23
-51 -56 -57 -75 -10 -30 -9 -41 10 -80 25 -53 122 -155 168 -179 50 -26 87
-13 154 55 68 67 112 153 102 195 -4 14 -26 47 -50 72 -60 63 -55 67 7 7 96
-94 144 -186 158 -304 11 -91 -3 -141 -63 -230 -74 -109 -75 -112 -12 -51 68
66 116 155 116 214 -1 60 -26 191 -44 227 -8 17 -48 76 -87 130 -43 60 -68
104 -63 109 12 12 84 -9 155 -45 71 -36 173 -139 204 -207 28 -59 32 -134 14
-232 -15 -84 -6 -91 20 -13 14 42 24 96 24 140 2 67 -1 77 -33 131 -77 127
-108 156 -238 226 -67 36 -122 70 -122 76 0 6 50 38 111 70 123 66 177 116
242 225 38 63 38 65 34 149 -3 55 -12 105 -27 143 -12 32 -23 57 -24 55 -2 -2
4 -51 13 -110 12 -89 13 -116 3 -155 -18 -66 -93 -167 -163 -218 -81 -60 -206
-106 -216 -80 -2 6 33 61 76 123 69 97 82 124 96 185 26 117 24 193 -5 251
-25 49 -128 171 -137 162 -3 -3 16 -34 41 -69 25 -35 55 -84 66 -108 52 -114
-1 -306 -119 -432 -56 -59 -60 -61 -86 -49 -19 9 -25 17 -21 29 17 43 17 98 2
118 -16 19 -16 19 -5 -7 13 -30 5 -86 -16 -114 -14 -18 -14 -18 -15 4 0 15 -6
22 -20 22 -11 0 -20 -7 -20 -15 0 -8 -7 -15 -15 -15 -8 0 -15 7 -15 16 0 10
-7 14 -22 12 -15 -2 -22 -9 -22 -21 3 -30 -14 -18 -26 19 -7 19 -10 51 -8 70
5 39 1 43 -11 12 -5 -13 -3 -42 5 -71 12 -47 12 -48 -12 -59 -23 -11 -29 -7
-80 43 -79 77 -133 190 -141 291 -8 109 1 138 73 244 35 51 63 94 61 94 -2 0
-32 -29 -66 -64z"/>
</g>
</svg>
